<svg width="383" height="383" viewBox="0 0 383 383" fill="none" xmlns="http://www.w3.org/2000/svg">
<rect width="383" height="383" rx="64" fill="#02B1AB"/>
<path d="M165.643 79.4463C171.171 74.7091 179.309 74.7091 184.837 79.4463L275.984 157.555C281.467 162.255 284.625 169.129 284.625 176.368V194H294.48V176.368C294.48 166.234 290.059 156.61 282.382 150.031L191.235 71.9215C182.022 64.0262 168.458 64.0262 159.245 71.9215L68.0982 150.031C60.4213 156.61 56 166.234 56 176.368V302.16C56 310.356 62.618 317 70.7818 317H279.698C287.862 317 294.48 310.356 294.48 302.16V294.255H284.625V302.16C284.625 304.892 282.419 307.107 279.698 307.107H70.7818C68.0606 307.107 65.8545 304.892 65.8545 302.16V176.368C65.8545 169.13 69.0126 162.255 74.4961 157.556L165.643 79.4463Z" fill="white"/>
<path d="M204.804 282.373H178.248V241.55C178.248 237.048 177.283 234.959 174.929 233.811C172.302 232.53 169.213 232.551 166.63 233.811C164.276 234.959 163.311 236.011 163.311 241.626V282.373H140.075V241.55C140.075 238.414 139.543 235.17 136.755 233.811C134.134 232.532 130.676 232.663 128.457 233.811C126.339 234.907 125.137 236.011 125.137 241.626V282.373H98.3745V235.784C98.3745 227.285 101.305 220.077 107.166 214.158C113.027 208.189 120.132 205.205 128.483 205.205C137.093 205.205 144.821 208.746 151.667 215.828C159.291 208.746 166.916 205.205 174.54 205.205C184.239 205.205 192.019 208.644 197.88 215.524C202.496 220.886 204.804 228.702 204.804 238.971V282.373Z" fill="white"/>
<path d="M327 282.373H300.445V241.55C300.445 237.048 299.48 234.959 297.125 233.811C294.498 232.53 291.409 232.551 288.827 233.811C286.472 234.959 285.507 236.011 285.507 241.626V282.373H262.271V241.55C262.271 238.414 261.74 235.17 258.952 233.811C256.33 232.532 252.872 232.663 250.653 233.811C248.535 234.907 247.334 236.011 247.334 241.626V282.373H220.571V235.784C220.571 227.285 223.501 220.077 229.362 214.158C235.223 208.189 242.329 205.205 250.679 205.205C259.289 205.205 267.017 208.746 273.863 215.828C281.488 208.746 289.112 205.205 296.736 205.205C306.435 205.205 314.215 208.644 320.076 215.524C324.692 220.886 327 228.702 327 238.971V282.373Z" fill="white"/>
</svg>
