<svg xmlns="http://www.w3.org/2000/svg" width="271" height="251" viewBox="0 0 271 251" fill="none">
<path d="M109.643 13.4463C115.171 8.70911 123.309 8.7091 128.837 13.4463L219.984 91.5555C225.467 96.2547 228.625 103.129 228.625 110.368V128H238.48V110.368C238.48 100.234 234.059 90.6095 226.382 84.0307L135.235 5.92147C126.022 -1.97383 112.458 -1.97382 103.245 5.92148L12.0982 84.0307C4.42128 90.6095 0 100.234 0 110.368V236.16C0 244.356 6.61805 251 14.7818 251H223.698C231.862 251 238.48 244.356 238.48 236.16V228.255H228.625V236.16C228.625 238.892 226.419 241.107 223.698 241.107H14.7818C12.0606 241.107 9.85455 238.892 9.85455 236.16V110.368C9.85455 103.13 13.0126 96.2547 18.4961 91.5555L109.643 13.4463Z" 
fill="#02B1AB"/>
<path d="M148.804 216.373H122.248V175.55C122.248 171.048 121.283 168.959 118.929 167.811C116.302 166.53 113.213 166.551 110.63 167.811C108.276 168.959 107.311 170.011 107.311 175.626V216.373H84.0748V175.55C84.0748 172.414 83.5434 169.17 80.7554 167.811C78.1339 166.532 74.6757 166.663 72.4568 167.811C70.3388 168.907 69.1374 170.011 69.1374 175.626V216.373H42.3745V169.784C42.3745 161.285 45.305 154.077 51.1658 148.158C57.0267 142.189 64.1323 139.205 72.4828 139.205C81.0925 139.205 88.8206 142.746 95.6669 149.828C103.291 142.746 110.916 139.205 118.54 139.205C128.239 139.205 136.019 142.644 141.88 149.524C146.496 154.886 148.804 162.702 148.804 172.971V216.373Z" 
fill="#02B1AB"/>
<path d="M271 216.373H244.445V175.55C244.445 171.048 243.48 168.959 241.125 167.811C238.498 166.53 235.409 166.551 232.827 167.811C230.472 168.959 229.507 170.011 229.507 175.626V216.373H206.271V175.55C206.271 172.414 205.74 169.17 202.952 167.811C200.33 166.532 196.872 166.663 194.653 167.811C192.535 168.907 191.334 170.011 191.334 175.626V216.373H164.571V169.784C164.571 161.285 167.501 154.077 173.362 148.158C179.223 142.189 186.329 139.205 194.679 139.205C203.289 139.205 211.017 142.746 217.863 149.828C225.488 142.746 233.112 139.205 240.736 139.205C250.435 139.205 258.215 142.644 264.076 149.524C268.692 154.886 271 162.702 271 172.971V216.373Z" 
fill="#02B1AB"/>
</svg>